<svg xmlns="http://www.w3.org/2000/svg" viewBox="0 0 119.61 38.09"><defs><style>.cls-1{fill:#e62534;}.cls-2{fill:#040012;}.cls-3{fill:none;stroke:#040012;stroke-width:0.66px;}.cls-4{fill:#231f20;}</style></defs><g id="Layer_2" data-name="Layer 2"><g id="Layer_1-2" data-name="Layer 1"><path class="cls-1" d="M18.1,19.42c-.89,1.13-1.92,1.87-3.46,1.46a8,8,0,0,1-3.18-3.37,9.49,9.49,0,0,0,1.78-6.41c2.37-2.52,2.06-3.95,2.06-3.95.3-3.1-3.23-3.71-3.23-3.71A3.1,3.1,0,0,0,9.4,1.07H9A3.1,3.1,0,0,0,6.31,3.44s-3.53.61-3.23,3.71c0,0-.32,1.43,2.06,3.95A9.5,9.5,0,0,0,7,17.51a8,8,0,0,1-3.18,3.37c-1.54.41-2.56-.33-3.46-1.46,0,0-.73,6.92,2.66,12.39A16.15,16.15,0,0,0,9.1,37.68v.13l.13-.06.12.06v-.13a16.15,16.15,0,0,0,6.13-5.87c3.39-5.47,2.66-12.39,2.66-12.39"/><path class="cls-2" d="M7.76,21.66a.46.46,0,0,0,.33-.23.47.47,0,0,0,.08-.38A.45.45,0,0,0,8,20.72a.52.52,0,0,0-.4-.08.57.57,0,0,0-.33.22.47.47,0,0,0-.07.4.55.55,0,0,0,.23.33.47.47,0,0,0,.38.07"/><path class="cls-2" d="M6.72,22.61A.46.46,0,0,0,7,22.38.5.5,0,0,0,7.11,22a.45.45,0,0,0-.22-.33.56.56,0,0,0-.4-.07.57.57,0,0,0-.33.22.68.68,0,0,0-.06.4.49.49,0,0,0,.22.33.61.61,0,0,0,.4.07"/><path class="cls-2" d="M5.19,23a.66.66,0,0,0,.33-.24.51.51,0,0,0,.06-.38A.45.45,0,0,0,5.36,22a.49.49,0,0,0-.72.16.46.46,0,0,0-.08.38.55.55,0,0,0,.23.33.62.62,0,0,0,.4.08"/><path class="cls-2" d="M11.4,34.32a.74.74,0,0,0,.33-.22.52.52,0,0,0,.08-.4.57.57,0,0,0-.24-.33.4.4,0,0,0-.38-.07.54.54,0,0,0-.41.61.51.51,0,0,0,.24.33.47.47,0,0,0,.38.08"/><path class="cls-2" d="M10.39,35.23a.66.66,0,0,0,.33-.24.43.43,0,0,0,.06-.38.52.52,0,0,0-.61-.41.51.51,0,0,0-.33.24.5.5,0,0,0-.08.38.64.64,0,0,0,.23.33.52.52,0,0,0,.4.08"/><path class="cls-2" d="M9.26,35.88a.6.6,0,0,0,.33-.23.6.6,0,0,0,.07-.39.49.49,0,0,0-.23-.33A.6.6,0,0,0,9,34.86a.55.55,0,0,0-.33.23.59.59,0,0,0-.07.39.55.55,0,0,0,.23.33.6.6,0,0,0,.39.07"/><path class="cls-2" d="M8.13,35.23A.66.66,0,0,0,8.46,35a.47.47,0,0,0,.08-.38.54.54,0,0,0-.24-.33A.48.48,0,0,0,8,34.23a.51.51,0,0,0-.33.24.46.46,0,0,0-.08.38.64.64,0,0,0,.23.33.49.49,0,0,0,.39.08"/><path class="cls-2" d="M7.11,34.28a.57.57,0,0,0,.33-.22.48.48,0,0,0,.07-.4A.52.52,0,0,0,7,33.23a.44.44,0,0,0-.33.23.49.49,0,0,0-.08.39.55.55,0,0,0,.22.32.56.56,0,0,0,.4.08"/><path class="cls-2" d="M6.2,33.33a.57.57,0,0,0,.33-.22.52.52,0,0,0,.08-.4.52.52,0,0,0-.24-.32A.48.48,0,0,0,6,32.31a.46.46,0,0,0-.33.23.49.49,0,0,0-.08.39.61.61,0,0,0,.24.33.51.51,0,0,0,.38.07"/><path class="cls-2" d="M5.33,32.23A.52.52,0,0,0,5.66,32a.43.43,0,0,0,.06-.38.41.41,0,0,0-.22-.33.51.51,0,0,0-.71.13h0a.51.51,0,0,0-.08.4.58.58,0,0,0,.24.39.51.51,0,0,0,.4.06"/><path class="cls-2" d="M4.6,31.15A.59.59,0,0,0,5,30.93a.48.48,0,0,0,.07-.4.5.5,0,0,0-.25-.3.56.56,0,0,0-.38-.07.44.44,0,0,0-.33.23.51.51,0,0,0-.08.4.64.64,0,0,0,.23.33.66.66,0,0,0,.39.06"/><path class="cls-2" d="M4,30a.53.53,0,0,0,.41-.62A.63.63,0,0,0,4.14,29a.47.47,0,0,0-.4-.07.55.55,0,0,0-.33.23.45.45,0,0,0-.07.39A.54.54,0,0,0,4,30"/><path class="cls-2" d="M3.36,28.75a.49.49,0,0,0,.33-.23.5.5,0,0,0,.08-.39.64.64,0,0,0-.23-.33.52.52,0,0,0-.72.16.45.45,0,0,0-.07.39.55.55,0,0,0,.23.33.51.51,0,0,0,.38.07"/><path class="cls-2" d="M3,27.48a.53.53,0,0,0,.41-.62.6.6,0,0,0-.23-.33.42.42,0,0,0-.39-.07.54.54,0,0,0-.41.61.56.56,0,0,0,.24.33.47.47,0,0,0,.38.08"/><path class="cls-2" d="M2.57,26.17A.63.63,0,0,0,3,25.94a.53.53,0,0,0,0-.39.47.47,0,0,0-.21-.32.52.52,0,0,0-.4-.08.61.61,0,0,0-.33.24.55.55,0,0,0-.06.38.47.47,0,0,0,.22.33.56.56,0,0,0,.4.08"/><path class="cls-2" d="M2.3,24.85a.45.45,0,0,0,.33-.22.53.53,0,0,0-.14-.73.56.56,0,0,0-.4-.07.49.49,0,0,0-.33.22.47.47,0,0,0-.06.4.49.49,0,0,0,.22.33.43.43,0,0,0,.38.06"/><path class="cls-2" d="M16.31,24.85a.45.45,0,0,0,.33-.22.48.48,0,0,0,.07-.4.51.51,0,0,0-.61-.39h0a.45.45,0,0,0-.33.22.56.56,0,0,0-.08.4.69.69,0,0,0,.23.33.54.54,0,0,0,.39.06"/><path class="cls-2" d="M16.06,26.17a.64.64,0,0,0,.33-.23.54.54,0,0,0,.07-.39.53.53,0,0,0-.62-.41.61.61,0,0,0-.33.24.56.56,0,0,0-.07.38.55.55,0,0,0,.23.33.49.49,0,0,0,.39.08"/><path class="cls-2" d="M15.63,27.48a.72.72,0,0,0,.32-.25.63.63,0,0,0,.06-.4.45.45,0,0,0-.22-.33.44.44,0,0,0-.4-.07.55.55,0,0,0-.33.23A.55.55,0,0,0,15,27a.47.47,0,0,0,.22.33.56.56,0,0,0,.4.08"/><path class="cls-2" d="M15.15,28.75a.6.6,0,0,0,.33-.23.54.54,0,0,0,.07-.39.49.49,0,0,0-.23-.33.53.53,0,0,0-.37-.07.5.5,0,0,0-.32.23.58.58,0,0,0-.08.39.64.64,0,0,0,.23.33.6.6,0,0,0,.39.07"/><path class="cls-2" d="M14.57,30a.57.57,0,0,0,.38-.22.64.64,0,0,0,.07-.4.49.49,0,0,0-.23-.33.54.54,0,0,0-.39-.07.47.47,0,0,0-.32.23.49.49,0,0,0-.08.39.55.55,0,0,0,.23.33.6.6,0,0,0,.39.07"/><path class="cls-2" d="M14,31.15a.54.54,0,0,0,.33-.22.52.52,0,0,0,.08-.4.57.57,0,0,0-.24-.33.49.49,0,0,0-.7.15h0a.51.51,0,0,0-.08.4.61.61,0,0,0,.24.33.63.63,0,0,0,.38.06"/><path class="cls-2" d="M13.15,32.23a.54.54,0,0,0,.33-.24.52.52,0,0,0-.15-.71.46.46,0,0,0-.38-.05.61.61,0,0,0-.33.24.43.43,0,0,0-.06.38.49.49,0,0,0,.22.33.6.6,0,0,0,.39.08"/><path class="cls-2" d="M12.31,33.33a.57.57,0,0,0,.33-.22.48.48,0,0,0,.07-.4.52.52,0,0,0-.22-.32.49.49,0,0,0-.39-.08.46.46,0,0,0-.33.23.58.58,0,0,0-.08.39.59.59,0,0,0,.26.3.54.54,0,0,0,.39.07"/><path class="cls-3" d="M8.51,37.28l.7.43.85-.52m1.36-19.67c.88,1.73,2.3,3.21,3.57,3.55a3,3,0,0,0,3.1-1.4A24.24,24.24,0,0,1,16,31a17.42,17.42,0,0,1-6.77,6.77M7,17.63a6.51,6.51,0,0,1-3.5,3.44,3,3,0,0,1-3.09-1.4A24.39,24.39,0,0,0,2.52,31a17.35,17.35,0,0,0,6.77,6.77M18,20.13S13.62,27,9.17,22.28M.48,20.13S4.81,27,9.26,22.28m-.07.39v-9.6m0-2.62V4M12,3.52S8,3.1,6,8.25a10.06,10.06,0,0,0-.79,4s.12,5.43,4.23,7.31m-3.1-16s4-.42,6.05,4.73a10.1,10.1,0,0,1,.74,4S13,17.66,8.92,19.54m3.42-3.66L9.16,17M13,14,9.16,15.39m4.11-3.48L9.11,13.35m4-1.66-4-1.41m3.66-.77L9.23,8.23m2.63-1.18L9.23,6.13M6,15.83l3.19,1.09m-3.83-3,3.83,1.42m-4.12-3.5,4.17,1.44m-4-1.66,4-1.41M5.58,9.44,9.12,8.23M6.48,7.07l2.64-.94m0-5A3,3,0,0,1,12,3.52s3.36.37,3.2,3.62c-.21,2.11-1.46,3.06-2.1,4m-3.86-10A3,3,0,0,0,6.36,3.52S3,3.89,3.15,7.14c.22,2.11,1.47,3.06,2.11,4"/><path class="cls-2" d="M34.5,29.77,43.68,1.6H59.82C59.18,4.32,58.14,7,57.4,9.79c2.17-2.48,4.24-5.51,6.5-8.19H79.59L68.78,16.23,73.1,29.8H56.85c-1.15-2.89-2-5.9-3.15-8.79-1.2,2.81-2.14,5.88-3.22,8.79Z"/><path class="cls-2" d="M91.82,21.88c1.76,1,4.58-.69,5.76-5.06.39-1.76.42-4.17-1.2-5.41-2-1.56-4.78,1-5.69,4.26s-.16,5.46,1.13,6.21M75,21.63c-1.61-3.4-1.45-8.4.85-11.47C81.8,2,92-.08,101.53,1.85c5.17,1.25,11,4.83,12.29,10.47S112,23.23,107.16,26.38c-7,4.71-17.5,5.5-25.21,1.85a15,15,0,0,1-7-6.57"/><polygon class="cls-2" points="40.33 1.6 24.74 1.6 16.42 29.73 31.22 29.73 40.33 1.6"/><polygon class="cls-2" points="16.4 29.73 16.41 29.74 16.42 29.73 16.4 29.73"/><path class="cls-4" d="M116.27,6.7a3.35,3.35,0,1,0-3.36-3.35,3.36,3.36,0,0,0,3.36,3.35h0m0-.51a2.84,2.84,0,1,1,2.86-2.84,2.87,2.87,0,0,1-2.86,2.84m.49-2.67c.66,0,1.17-.28,1.17-1s-.64-1-1.34-1H115V5.22h.52V3.47h.61l1.11,1.7h.68ZM115.54,3V2.06h1c.4,0,.91.08.91.45,0,.59-.81.49-1.27.49Z"/></g></g></svg>